<svg xmlns="http://www.w3.org/2000/svg" width="273.111" height="41.452" viewBox="0 0 273.111 41.452">
    <g id="Group_287" data-name="Group 287" transform="translate(-403.944 -106.473)">
        <g id="Group_285" data-name="Group 285">
            <path id="Path_220" data-name="Path 220"
                d="M596.793,109.435h-4.064a.949.949,0,0,0-.949.949v14.135H572.627V110.384a.95.95,0,0,0-.95-.949h-4.063a.949.949,0,0,0-.95.949v35.665a.95.95,0,0,0,.95.95h4.063a.95.95,0,0,0,.95-.95v-16.19H591.78v16.19a.949.949,0,0,0,.949.95h4.064a.95.95,0,0,0,.95-.95V110.384A.949.949,0,0,0,596.793,109.435Z"
                fill="#fff" />
            <path id="Path_221" data-name="Path 221"
                d="M636.837,109.435h-3.874a.949.949,0,0,0-.95.949v16.608c0,3.586.019,6.919.193,10.208-1.464-2.4-19.761-27.37-19.761-27.37a.951.951,0,0,0-.772-.4h-4.44a.95.95,0,0,0-.95.949v35.665a.95.95,0,0,0,.95.95h3.874a.95.95,0,0,0,.95-.95V128.87c0-3.869-.029-7.126-.149-10.285,1.7,2.752,20.072,28.016,20.072,28.016a.952.952,0,0,0,.774.4h4.083a.949.949,0,0,0,.949-.95V110.384A.949.949,0,0,0,636.837,109.435Z"
                fill="#fff" />
            <path id="Path_222" data-name="Path 222"
                d="M676.106,109.435H646.231a.95.95,0,0,0-.95.949v3.357a.95.95,0,0,0,.95.949h11.935v31.359a.95.95,0,0,0,.95.95h4.064a.949.949,0,0,0,.949-.95V114.69h11.977a.949.949,0,0,0,.949-.949v-3.357A.949.949,0,0,0,676.106,109.435Z"
                fill="#fff" />
        </g>
        <g id="Group_286" data-name="Group 286">
            <path id="Path_223" data-name="Path 223"
                d="M473.4,116.712a11.534,11.534,0,0,0-7.9,2.728,12.733,12.733,0,0,0-2.277,2.426,10.079,10.079,0,0,0-8.763-5.154,11.361,11.361,0,0,0-8.927,3.843l-.105-2.1a1.114,1.114,0,0,0-1.112-1.057h-3.555a1.111,1.111,0,0,0-1.11,1.192c.152,2.119.226,4.417.226,7.024v16.427c-4.989,0-14.821,0-17.428-.006-5.865-.01-8.75-1.666-11.023-4.829-1.835-2.555-1.834-4.991-1.832-8.075,0-.422,0-.846,0-1.272-.016-1.4-.012-2.763,0-3.886,1.123-.009,2.487-.012,3.886,0,.427.005.851,0,1.273.005,3.071,0,5.518,0,8.073,1.833,2.888,2.075,4.072,4.669,4.265,9.57a1.087,1.087,0,0,0,1.121.981l3.41-.13a1.089,1.089,0,0,0,1.047-1.13c0-.25.005-.458.014-.647-.389-6.275-2.369-10.2-6.568-13.221-4.029-2.9-7.925-2.889-11.365-2.893-.4,0-.8,0-1.209,0-3.476-.038-6.657.033-6.79.036a2.818,2.818,0,0,0-2.754,2.753c0,.134-.074,3.314-.037,6.79.005.405,0,.808,0,1.209,0,3.439,0,7.337,2.892,11.366,3.382,4.707,7.9,6.721,15.59,6.735H440.93c.021,0,.041.006.062.006h3.91a1.113,1.113,0,0,0,1.113-1.113V129.545a6.4,6.4,0,0,1,.4-2.2c.975-2.459,3.509-5.105,6.769-5.105,3.638,0,5.9,2.853,5.9,7.446v16.439a1.112,1.112,0,0,0,1.112,1.113h3.909a1.113,1.113,0,0,0,1.113-1.113V128.875a6.326,6.326,0,0,1,.445-2.188A7.117,7.117,0,0,1,472,122.239c5.2,0,6.291,4.716,6.291,8.672v15.213a1.113,1.113,0,0,0,1.113,1.113h3.909a1.112,1.112,0,0,0,1.112-1.113V130.631C484.428,120.357,478.487,116.712,473.4,116.712Z"
                fill="#01e7ad" />
            <rect id="Rectangle_229" data-name="Rectangle 229" width="6.193" height="29.837" rx="1.113"
                transform="translate(492.665 117.4)" fill="#01e7ad" />
            <path id="Path_224" data-name="Path 224"
                d="M495.79,106.473a3.938,3.938,0,0,0-3.926,3.942,3.9,3.9,0,1,0,7.8,0v-.006A3.879,3.879,0,0,0,495.79,106.473Z"
                fill="#01e7ad" />
            <path id="Path_225" data-name="Path 225"
                d="M522.641,116.712a12.9,12.9,0,0,0-9.534,3.984l-.112-2.239a1.114,1.114,0,0,0-1.112-1.057h-3.6a1.111,1.111,0,0,0-1.11,1.192c.152,2.119.226,4.417.226,7.024v20.508a1.113,1.113,0,0,0,1.113,1.113h3.967a1.113,1.113,0,0,0,1.113-1.113V129.5a6.41,6.41,0,0,1,.358-2,8.122,8.122,0,0,1,7.494-5.255c5.979,0,6.872,5.249,6.872,8.378v15.507a1.113,1.113,0,0,0,1.113,1.113h3.967a1.113,1.113,0,0,0,1.113-1.113V130.385C534.505,120.293,528.114,116.712,522.641,116.712Z"
                fill="#01e7ad" />
            <path id="Path_226" data-name="Path 226"
                d="M557.249,122.7a1.113,1.113,0,0,0,1.113-1.113v-3.072a1.112,1.112,0,0,0-1.113-1.112h-7.2v-7.076a1.111,1.111,0,0,0-1.407-1.073l-3.917,1.075a1.114,1.114,0,0,0-.819,1.073v6h-3.716a1.112,1.112,0,0,0-1.112,1.112v3.072a1.113,1.113,0,0,0,1.112,1.113H543.9v14.972c0,3.481.75,6.077,2.208,7.695a8.057,8.057,0,0,0,6.287,2.561,13.374,13.374,0,0,0,4.984-.844,1.113,1.113,0,0,0,.689-1.138l-.3-3.039a1.112,1.112,0,0,0-1.469-.945,9.634,9.634,0,0,1-3.1.414c-1.641,0-3.16-.572-3.16-4.716V122.7Z"
                fill="#01e7ad" />
        </g>
    </g>
</svg>